<svg xmlns="http://www.w3.org/2000/svg" width="93.536" height="97.145" viewBox="0 0 93.536 97.145"><path d="M581.592,200.179v11.015a10.428,10.428,0,0,1-10.3,10.549H539.149a3.148,3.148,0,0,0-3.1,3.333,3.2,3.2,0,0,0,3.189,3.02h7.6a3.141,3.141,0,0,1,3.1,3.177v7.942a10.5,10.5,0,0,1-10.369,10.617h-9.016a10.5,10.5,0,0,1-10.371-10.617V211.238H498.359a10.428,10.428,0,0,1-10.3-10.549V191.32a10.428,10.428,0,0,1,10.3-10.549H529.6a3.148,3.148,0,0,0,3.1-3.329,3.2,3.2,0,0,0-3.189-3.026h-6.216a3.143,3.143,0,0,1-3.1-3.177V163.3a10.494,10.494,0,0,1,10.371-10.615h9.016a10.493,10.493,0,0,1,10.369,10.585V189.63h21.348A10.429,10.429,0,0,1,581.592,200.179Z" transform="translate(-488.056 -152.687)" fill="#b1b1b1"/><path d="M556.779,200.179v11.015a10.428,10.428,0,0,1-10.3,10.549H514.336a3.148,3.148,0,0,0-3.1,3.333,3.2,3.2,0,0,0,3.189,3.02h7.6a3.141,3.141,0,0,1,3.1,3.177v7.942a10.5,10.5,0,0,1-10.369,10.617h-4.509V152.687h4.509a10.493,10.493,0,0,1,10.369,10.585V189.63h21.348A10.429,10.429,0,0,1,556.779,200.179Z" transform="translate(-463.244 -152.687)" fill="#b1b1b1"/><path d="M519.178,193.528a3.1,3.1,0,1,1-3.1-3.175A3.139,3.139,0,0,1,519.178,193.528Z" transform="translate(-460.201 -110.583)" fill="#fff"/><path d="M517.541,193.528a3.139,3.139,0,0,1-3.1,3.177v-6.351A3.137,3.137,0,0,1,517.541,193.528Z" transform="translate(-458.564 -110.583)" fill="#fff"/><path d="M549.943,163.272v30.715a6.28,6.28,0,0,1-6.207,6.354H523.292a3.144,3.144,0,0,0-3.1,3.177v7.722H498.359a10.429,10.429,0,0,1-10.3-10.549V191.32a10.429,10.429,0,0,1,10.3-10.549H529.6a3.148,3.148,0,0,0,3.1-3.329,3.2,3.2,0,0,0-3.189-3.026h-6.216a3.143,3.143,0,0,1-3.1-3.177V163.3a10.494,10.494,0,0,1,10.371-10.615h9.016A10.493,10.493,0,0,1,549.943,163.272Z" transform="translate(-488.056 -152.687)" fill="#b1b1b1"/><path d="M525.131,163.272v30.715a6.28,6.28,0,0,1-6.207,6.354h-8.67V152.687h4.509A10.493,10.493,0,0,1,525.131,163.272Z" transform="translate(-463.244 -152.687)" fill="#b1b1b1"/><path d="M511.144,161.415a3.1,3.1,0,1,1-3.1-3.179A3.139,3.139,0,0,1,511.144,161.415Z" transform="translate(-469.184 -146.484)" fill="#fff"/><path d="M509.507,161.415a3.139,3.139,0,0,1-3.1,3.175v-6.353A3.143,3.143,0,0,1,509.507,161.415Z" transform="translate(-467.546 -146.484)" fill="#fff"/></svg>